<svg xmlns="http://www.w3.org/2000/svg" viewBox="0 0 307.88 665" width="307.88" height="665" style="--bg:#FFFFFF;--fg:#27272A;background:#FFFFFF">
<style>
  @import url('https://fonts.googleapis.com/css2?family=Inter:wght@400;500;600;700&amp;display=swap');
  text { font-family: 'Inter', system-ui, sans-serif; }
  svg {
    /* Derived from --bg and --fg (overridable via --line, --accent, etc.) */
    --_text:          #1a1a1a;
    --_text-sec:      var(--muted, color-mix(in srgb, #1a1a1a 60%, #FFFFFF));
    --_text-muted:    var(--muted, color-mix(in srgb, #1a1a1a 40%, #FFFFFF));
    --_text-faint:    color-mix(in srgb, #1a1a1a 25%, #FFFFFF);
    --_line:          var(--line, color-mix(in srgb, #1a1a1a 30%, #FFFFFF));
    --_arrow:         var(--accent, color-mix(in srgb, #1a1a1a 50%, #FFFFFF));
    --_node-fill:     var(--surface, color-mix(in srgb, #1a1a1a 3%, #FFFFFF));
    --_node-stroke:   var(--border, color-mix(in srgb, #1a1a1a 20%, #FFFFFF));
    --_group-fill:    #FFFFFF;
    --_group-hdr:     color-mix(in srgb, #1a1a1a 5%, #FFFFFF);
    --_inner-stroke:  color-mix(in srgb, #1a1a1a 12%, #FFFFFF);
    --_key-badge:     color-mix(in srgb, #1a1a1a 10%, #FFFFFF);
  }
</style>
<defs>
  <marker id="arrowhead" markerWidth="8" markerHeight="4.8" refX="8" refY="2.4" orient="auto">
    <polygon points="0 0, 8 2.4, 0 4.8" fill="#444444" />
  </marker>
  <marker id="arrowhead-start" markerWidth="8" markerHeight="4.8" refX="0" refY="2.4" orient="auto-start-reverse">
    <polygon points="8 0, 0 2.4, 8 4.8" fill="#444444" />
  </marker>
</defs>
<polyline points="161.37,76 161.37,116" fill="none" stroke="#666666" stroke-width="0.75" marker-end="url(#arrowhead)" />
<polyline points="161.37,152 161.37,192" fill="none" stroke="#666666" stroke-width="0.75" marker-end="url(#arrowhead)" />
<polyline points="161.37,228 161.37,248 98.9,248 98.9,268" fill="none" stroke="#666666" stroke-width="0.75" marker-end="url(#arrowhead)" />
<polyline points="98.9,304 98.9,362 98.89500000000001,362" fill="none" stroke="#666666" stroke-width="0.75" marker-end="url(#arrowhead)" />
<polyline points="161.37,344 161.37,324 223.84,324 223.84,210 227.42000000000002,210" fill="none" stroke="#666666" stroke-width="0.75" marker-end="url(#arrowhead)" />
<polyline points="161.37,380 161.37,437" fill="none" stroke="#666666" stroke-width="0.75" marker-end="url(#arrowhead)" />
<polyline points="161.37,473 161.37,513" fill="none" stroke="#666666" stroke-width="0.75" marker-end="url(#arrowhead)" />
<polyline points="161.37,549 161.37,589" fill="none" stroke="#666666" stroke-width="0.75" marker-end="url(#arrowhead)" />
<rect x="175.8" y="272.5" width="96.08" height="27" rx="4" ry="4" fill="#FFFFFF" stroke="var(--_inner-stroke)" stroke-width="0.5" />
<text x="223.84" y="286" text-anchor="middle" dy="0.35em" font-size="11" font-weight="400" fill="#888888">Changes needed</text>
<rect x="130.49" y="395" width="61.760000000000005" height="27" rx="4" ry="4" fill="#FFFFFF" stroke="var(--_inner-stroke)" stroke-width="0.5" />
<text x="161.37" y="408.5" text-anchor="middle" dy="0.35em" font-size="11" font-weight="400" fill="#888888">Approved</text>
<rect x="91.745" y="40" width="139.25" height="36" rx="0" ry="0" fill="#f5f5f5" stroke="#cccccc" stroke-width="0.75" />
<rect x="77.445" y="116" width="167.85000000000002" height="36" rx="0" ry="0" fill="#f5f5f5" stroke="#cccccc" stroke-width="0.75" />
<rect x="95.32" y="192" width="132.10000000000002" height="36" rx="0" ry="0" fill="#f5f5f5" stroke="#cccccc" stroke-width="0.75" />
<rect x="40" y="268" width="117.80000000000001" height="36" rx="0" ry="0" fill="#f5f5f5" stroke="#cccccc" stroke-width="0.75" />
<rect x="98.89500000000001" y="344" width="124.95" height="36" rx="0" ry="0" fill="#f5f5f5" stroke="#cccccc" stroke-width="0.75" />
<rect x="116.77000000000001" y="437" width="89.2" height="36" rx="0" ry="0" fill="#f5f5f5" stroke="#cccccc" stroke-width="0.75" />
<rect x="98.89500000000001" y="513" width="124.95" height="36" rx="0" ry="0" fill="#f5f5f5" stroke="#cccccc" stroke-width="0.75" />
<rect x="95.32" y="589" width="132.10000000000002" height="36" rx="0" ry="0" fill="#f5f5f5" stroke="#cccccc" stroke-width="0.75" />
<text x="161.37" y="58" text-anchor="middle" dy="0.35em" font-size="13" font-weight="500" fill="#1a1a1a">Source Material</text>
<text x="161.37" y="134" text-anchor="middle" dy="0.35em" font-size="13" font-weight="500" fill="#1a1a1a">Research &amp; Analysis</text>
<text x="161.37" y="210" text-anchor="middle" dy="0.35em" font-size="13" font-weight="500" fill="#1a1a1a">Draft Document</text>
<text x="98.9" y="286" text-anchor="middle" dy="0.35em" font-size="13" font-weight="500" fill="#1a1a1a">Pull Request</text>
<text x="161.37" y="362" text-anchor="middle" dy="0.35em" font-size="13" font-weight="500" fill="#1a1a1a">Expert Review</text>
<text x="161.37" y="455" text-anchor="middle" dy="0.35em" font-size="13" font-weight="500" fill="#1a1a1a">Approval</text>
<text x="161.37" y="531" text-anchor="middle" dy="0.35em" font-size="13" font-weight="500" fill="#1a1a1a">Merge to Main</text>
<text x="161.37" y="607" text-anchor="middle" dy="0.35em" font-size="13" font-weight="500" fill="#1a1a1a">In The Library</text>
</svg>